<?xml version="1.0" encoding="UTF-8" standalone="no"?>
<!-- Created with Inkscape (http://www.inkscape.org/) -->

<svg
   xmlns:dc="http://purl.org/dc/elements/1.1/"
   xmlns:cc="http://creativecommons.org/ns#"
   xmlns:rdf="http://www.w3.org/1999/02/22-rdf-syntax-ns#"
   xmlns:svg="http://www.w3.org/2000/svg"
   xmlns="http://www.w3.org/2000/svg"
   xmlns:sodipodi="http://sodipodi.sourceforge.net/DTD/sodipodi-0.dtd"
   xmlns:inkscape="http://www.inkscape.org/namespaces/inkscape"
   width="162mm"
   height="136mm"
   viewBox="0 0 162 136"
   version="1.1"
   id="svg8"
   inkscape:version="0.92.1 r15371"
   sodipodi:docname="weather.svg">
  <defs
     id="defs2" />
  <sodipodi:namedview
     id="base"
     pagecolor="#ffffff"
     bordercolor="#666666"
     borderopacity="1.0"
     inkscape:pageopacity="0.0"
     inkscape:pageshadow="2"
     inkscape:zoom="0.35"
     inkscape:cx="-27.142857"
     inkscape:cy="560"
     inkscape:document-units="mm"
     inkscape:current-layer="g12"
     showgrid="false"
     inkscape:window-width="1920"
     inkscape:window-height="1017"
     inkscape:window-x="-8"
     inkscape:window-y="-8"
     inkscape:window-maximized="1" />
  <metadata
     id="metadata5">
    <rdf:RDF>
      <cc:Work
         rdf:about="">
        <dc:format>image/svg+xml</dc:format>
        <dc:type
           rdf:resource="http://purl.org/dc/dcmitype/StillImage" />
        <dc:title></dc:title>
      </cc:Work>
    </rdf:RDF>
  </metadata>
  <g
     inkscape:label="Layer 1"
     inkscape:groupmode="layer"
     id="layer1"
     transform="translate(0,-161)">
    <g
       id="g14"
       transform="matrix(0.26458333,0,0,0.26458333,-55.638094,50.105953)">
      <g
         id="g12">
        <path
           id="path10"
           d="m 468,486.85715 c 8.833,0 16,-7.167 16,-16 v -32 c 0,-8.833 -7.167,-16 -16,-16 -8.833,0 -16,7.167 -16,16 v 32 c 0,8.833 7.167,16 16,16 z m 124.438,42.167 22.625,-22.625 c 6.249,-6.25 6.249,-16.375 0,-22.625 -6.25,-6.25 -16.375,-6.25 -22.625,0 l -22.625,22.625 c -6.25,6.25 -6.25,16.375 0,22.625 6.249,6.25 16.375,6.25 22.625,0 z M 276,646.85715 h 32 c 8.833,0 16,-7.167 16,-16 0,-8.833 -7.167,-16 -16,-16 h -32 c -8.833,0 -16,7.167 -16,16 0,8.833 7.167,16 16,16 z m 336,-16 c 0,8.833 7.167,16 16,16 h 32 c 8.833,0 16,-7.167 16,-16 0,-8.833 -7.167,-16 -16,-16 h -32 c -8.833,0 -16,7.167 -16,16 z m -268.459,-101.833 c 6.251,6.25 16.376,6.25 22.625,0 6.251,-6.25 6.251,-16.375 0,-22.625 l -22.625,-22.625 c -6.25,-6.25 -16.374,-6.25 -22.625,0 -6.25,6.25 -6.25,16.375 0,22.625 z M 660,678.85715 c -5.312,0 -10.562,0.375 -15.792,1.125 -16.771,-22.875 -39.124,-40.333 -64.458,-51.5 -1.291,-60.625 -50.812,-109.625 -111.75,-109.625 -61.75,0 -112,50.25 -112,112 0,17.438 4.334,33.75 11.5,48.438 -59.625,2.437 -107.5,51.374 -107.5,111.562 0,61.75 50.25,112 112,112 13.688,0 27.084,-2.5 39.709,-7.333 28.957,25.25 65.791,39.333 104.291,39.333 38.542,0 75.333,-14.083 104.291,-39.333 12.625,4.833 26.021,7.333 39.709,7.333 61.75,0 112,-50.25 112,-112 0,-61.75 -50.25,-112 -112,-112 z m -192,-128 c 39.812,0 72.562,29.167 78.708,67.25 -10.021,-2 -20.249,-3.25 -30.708,-3.25 -45.938,0 -88.5,19.812 -118.375,53.25 -5.937,-11.167 -9.625,-23.708 -9.625,-37.25 0,-44.188 35.812,-80 80,-80 z m 192,320 c -17.125,0 -32.916,-5.5 -45.938,-14.667 -23.478,28.292 -58.438,46.667 -98.062,46.667 -39.625,0 -74.584,-18.375 -98.062,-46.667 -13,9.167 -28.813,14.667 -45.938,14.667 -44.188,0 -80,-35.812 -80,-80 0,-44.188 35.812,-80 80,-80 7.75,0 15.062,1.458 22.125,3.541 2.812,0.792 5.667,1.417 8.312,2.521 4.375,-8.562 9.875,-16.396 15.979,-23.75 23.376,-28.124 58.146,-46.312 97.584,-46.312 10.125,0 19.834,1.458 29.25,3.709 10.562,2.499 20.542,6.291 29.834,11.291 23.291,12.375 42.416,31.542 54.457,55.063 9.397,-3.875 19.668,-6.063 30.459,-6.063 44.188,0 80,35.812 80,80 0,44.188 -35.812,80 -80,80 z"
           inkscape:connector-curvature="0"
           style="fill:#1d1d1b" />
      </g>
    </g>
  </g>
</svg>
